<?xml version="1.0" encoding="UTF-8"?><svg id="Layer_1" xmlns="http://www.w3.org/2000/svg" viewBox="0 0 932 980"><path d="m1,298v-23c2.97-16.27,10.79-30,22.41-41.51,8.04-7.96,16.53-15.47,24.97-23,4.6-4.1,9.53-7.84,14.32-11.74-.25-.37-.5-.75-.75-1.12-8.23,4.68-16.45,9.37-24.68,14.05.68-1.94,1.91-3.14,3.29-4.14,5.26-3.82,10.67-7.42,15.82-11.37,11.47-8.8,23.32-17.21,34.07-26.83,8.42-7.53,8.17-14.17,3.55-24.39-3.25-7.2-5.93-14.86-7.45-22.59-3.93-19.97,1.8-36.46,18.2-49.53,13.29-10.59,28.02-16.38,44.71-17.87,4.17-.37,8.32-.88,12.49-1.33-.02-.64-.05-1.28-.07-1.92h-34.46c0-.67-.02-1.35-.03-2.02,4.55-.56,9.09-1.32,13.65-1.65,19.94-1.43,39.87-2.93,59.83-4.02,13.91-.76,26.43-4.88,37.38-13.56,7.04-5.59,14.35-10.9,21-16.92,6.51-5.9,14.05-8.76,22.49-9.76,8.74-1.04,17.5-1.86,26.26-2.78,20.67,0,41.33,0,62,0,1.46.26,2.91.64,4.39.75,14.28,1.12,28.59,1.96,42.85,3.32,41.01,3.92,77.64,19.02,108.82,45.75,26.93,23.09,52.46,47.8,78.95,71.4,14.86,13.24,26.18,28.83,33.87,47.04,5.7,13.5,11.21,27.1,16.17,40.88,10.79,29.96,24.09,58.4,44.59,83.24,11.75,14.24,22.69,29.3,29.99,46.47,3.19,7.5,5.25,15.47,8.07,23.99-9.75-3.89-18.1-7.73-26.77-10.57-17.56-5.76-35.32-10.9-52.95-16.45-20.02-6.3-39.05-14.51-54.43-29.45-13.35-12.97-23.06-28.52-30.74-45.23-11.33-24.66-21.47-49.88-32.9-74.49-24.13-51.96-60.67-92.88-110.62-121.33-24-13.67-50.29-22.04-76.05-31.57-7.74-2.86-15.61-5.39-23.42-8.08-.14.37-.29.75-.43,1.12,2.5,1.11,4.97,2.3,7.51,3.33,18.21,7.39,36.46,14.67,54.64,22.14,50.52,20.76,91.65,53.16,122.19,98.68,15.44,23.02,25.89,48.42,35.19,74.33,8.5,23.68,17.02,47.33,29.09,69.53,15.71,28.87,37.85,50.39,69.23,61.72,30.94,11.16,62.53,19.85,94.93,25.53,25.47,4.46,50.67,9.83,74.77,19.55,37.5,15.1,66.49,41.3,93,70.8.8.89,1.32,2.03,2.11,3.26-.81,0-1.24.13-1.39-.02-4.23-4.25-8.48-8.47-12.62-12.81-25.95-27.21-55.41-49.53-92.23-59.11-27.19-7.07-55.13-11.26-82.75-16.68-2.89-.57-5.86-.79-8.79-1.17,3.08,2.94,6.36,4.88,9.83,6.39,27.54,12.02,44.63,33.14,52.96,61.51,8.99,30.63,10.46,62.31,12,93.93.04.83-.46,1.69-.88,3.15-2.35-2.01-4.32-3.51-6.06-5.24-7.08-7.05-13.99-14.29-21.17-21.23-4.3-4.15-8.73-8.26-13.58-11.71-4.41-3.13-9.16-.07-8.89,5.38.11,2.13.66,4.29,1.33,6.33,4.63,14.09,12.55,26.02,23.76,35.76,18.88,16.43,40.84,27.16,64.96,32.79,23.84,5.57,48.07,7.77,72.72.76-1.49,6.23-4.94,11.09-10.19,14.61-11.05,7.43-23.27,10.08-36.23,7.15-32.15-7.25-64.37-14.28-96.28-22.49-37.7-9.69-74.44-22.11-106.89-44.59-1.64-1.14-3.52-1.94-5.28-2.9-.04,1.49.42,2.14.94,2.75,9.9,11.62,21.77,20.97,35.89,26.46,21.85,8.5,43.92,16.64,66.36,23.4,39.38,11.88,79.03,23,119.79,29.3,13.66,2.11,27.45,4.09,40.9-1.54.94-.39,2.14-.16,4.03-.26-6.44,13.19-13.02,25.14-26.52,31.45-2.81,1.31-5.33,3.22-7.99,4.85.18.74.36,1.48.53,2.22,3.98.42,7.99.68,11.94,1.34,1.99.33,3.86,1.37,5.78,2.09-1,1.83-1.76,3.86-3.05,5.45-1.35,1.66-3.17,2.93-4.84,4.31-2.47,2.05-4.99,4.04-8.44,6.81,10.24,0,19.1.67,27.79-.23,6.09-.63,11.95-3.39,17.92-5.2,1.87-.57,3.75-1.1,5.62-1.66v2c-13.09,18.12-31.05,24.69-52.55,20.75-8.04-1.47-15.63-5.46-23.39-8.39-2.08-.79-3.73-1.73-5.54.82-8.52,12-14.53,24.36-11.29,39.96,2.46,11.86,1.69,11.93-9.3,16.6-3.81,1.62-7.4,3.74-11.09,5.63.16.59.32,1.18.48,1.76,15.45,4.83,31.24,7.11,47.93,4.82-2.41,7.57-7.99,10.91-13.9,13.66-5.89,2.74-12.02,4.95-18.04,7.4l.43,1.81c14.58,4.67,29.34,2.43,44.84-.75-3.23,5.15-8.14,8.4-14.47,10-10.78,2.72-21.17.76-31.38-2.85-18.63-6.6-34.44-18-50.33-29.34-17.13-12.23-34.76-23.8-55.57-28.8-8.66-2.08-17.68-3.37-26.58-3.6-7.45-.2-9.22,3.57-6.48,10.58.79,2.01,1.62,4.06,2.78,5.86,15.01,23.37,30.97,45.71,59.66,54.02,2.05.59,3.86,2.02,5.79,3.05-.12.45-.24.9-.36,1.35-2.74,0-5.65.61-8.18-.12-7.02-2.03-14.11-4.09-20.75-7.07-23.19-10.41-44.42-24.24-65.33-38.57-10.17-6.97-20.26-14.05-30.49-20.93-2.11-1.42-4.66-2.18-7.01-3.25-.57.62-1.14,1.24-1.7,1.86,10.39,17.59,20.4,35.42,31.31,52.69,7.16,11.33,17.95,18.84,30.83,22.62,9.72,2.86,19.62,5.58,29.63,6.89,24.59,3.21,49.26,5.91,73.96,8.12,9.48.85,19.12-.25,26.21-8.23.22-.25.92-.07,2.23-.13-.52,2.77-.47,5.53-1.55,7.74-6.53,13.5-15.98,23.63-32.07,24.24-15.48.58-30.99.13-46.47.7-8.94.33-17.88,1.47-26.72,2.89-4.68.75-8.08,3.91-8.77,9.07-.69,5.17,1.21,9.51,5.69,11.84,4.96,2.57,10.26,5.14,15.69,6.04,10.32,1.71,20.84,2.21,31.27,3.27,2.64.27,5.25.77,7.87,1.17.02.48.04.96.06,1.44-1.37.85-2.69,1.79-4.12,2.53-19.41,10-40.11,14.29-61.82,13.13-6.41-.34-12.84-1.86-19.05-3.58-4.87-1.35-9.3-4.22-11.09-9.34-6.84-19.64-17.01-37.61-27.45-55.44-17.54-29.96-37.25-58.39-59.5-85.1-8.25-9.91-15.21-20.9-22.93-31.64.72,4.76,1.42,9.4,2.14,14.21-16.09-17.24-31.73-34-47.37-50.76.29-.32.59-.64.88-.96,3.91,2.93,7.83,5.86,11.74,8.79.34-.46.68-.92,1.03-1.38-1.19-1.56-2.3-3.2-3.58-4.68-12.84-14.78-29.16-23.29-48.16-27.44-9.9-2.16-19.74-4.89-29.29-8.25-9.25-3.26-15.47-10.34-20.64-19.58,13.35-3.17,24.68,4.59,36.98,3.96-2.29-2.45-4.67-4.51-7.38-5.95-13.07-6.99-26.29-13.69-39.34-20.73-19.12-10.32-35.4-23.69-45.62-43.44-7.75-14.98-11.92-31.06-14.88-47.51-8.03-44.66-9.18-89.77-8.72-134.98,0-.72.17-1.44.26-2.16.96.65,1.28,1.34,1.41,2.07,7.56,42.54,18.34,84.27,30.94,125.58,8.86,29.05,25.83,52.03,50.55,69.3,35.7,24.96,75.69,39.26,118.61,44.55,40.33,4.98,80.84,8.52,121.33,12.04,39.49,3.43,78.4,9.29,115.77,23.12.8.3,1.68.36,2.53.53-4.42-3.25-9.13-5.65-14.06-7.49-34.27-12.8-69.99-18.87-106.17-23.07-31.1-3.6-62.25-7.14-93.14-12.21-41.8-6.85-82-19.06-119.49-39.46-33.76-18.38-58.97-44.08-70.29-81.4-10.44-34.42-19.76-69.18-29.52-103.8-.99-3.52-1.63-7.14-2.44-10.72,2.37,2.88,3.74,6.04,5.01,9.23,2.22,5.57,4.23,11.23,6.62,16.72,2.62,6.04,4.12,6.71,9.1,2.54,11.98-10.04,23.97-20.14,35.12-31.07,5.6-5.49,9.83-12.57,13.86-19.41,15.25-25.89,4.98-73.45-37.08-78.77-11.07-1.4-22.12-3.01-33.18-4.43-12.86-1.65-25.09-5.09-36.3-11.87-3.38-2.04-7.02-4.32-13.01-2.04,3.15,2.75,5.09,5.41,7.69,6.57,11.85,5.23,23.86,10.1,35.87,14.96,3.91,1.58,7.99,2.74,12,4.09-.16.43-.32.86-.49,1.3-22.1-3.72-42.49-11.87-61.36-24.34,2.08,2.7,4.4,4.99,7.04,6.8,11.79,8.09,24.72,13.71,38.47,17.52,11.26,3.12,22.37,6.6,32.21,13.22,1.55,1.04,3.57,1.37,5.38,2.02.43-.64.86-1.29,1.3-1.93-1.51-1.01-3.32-1.77-4.44-3.1-1.28-1.54-1.94-3.59-2.88-5.42,2.09-.65,4.26-2.03,6.26-1.82,10.58,1.11,19.96,5.32,27.67,12.65,15.04,14.32,13.16,42.09-3.73,54.39-2.02,1.47-5.65,2.63-7.59,1.78-1.95-.86-2.8-4.36-3.93-6.81-.39-.84-.1-1.98-.18-2.97-.99-12.03-4.77-23.15-11.39-33.2-4.27-6.49-10.7-9.68-18.35-10.61,3.7,4.62,7.98,8.5,11.85,12.75,6.66,7.33,12.98,15.05,13.47,25.52.13,2.78-1.68,5.66-2.6,8.49-2.19-1.71-5.05-3-6.47-5.21-8.25-12.77-18.69-23.41-30.73-32.52-1.88-1.42-5.4-2.67-7.05-1.82-1.66.85-2.48,4.36-2.73,6.79-.87,8.78-.93,17.65-2.07,26.38-1.71,13.08-5.25,25.69-12.28,37.12,2.89-12.69,5.18-25.4,3.96-38.48-1.23-13.19-5.03-25.57-11.62-37.09.34,4.33,1.19,8.55,1.67,12.81,1.6,14.1-3.09,25.94-13.54,35.39-5.25,4.74-10.82,5.79-16.31,3.81.41-.33.74-.69,1.15-.9,17.68-9.12,26.95-27.98,20.73-46.76-6.32-19.07-14.78-37.43-22.32-56.09-.99-2.44-2.08-4.84-3.13-7.26,6.11,4,10.51,9.98,18.77,9.02-10.84-10.2-23.18-18.75-33.24-29.44-10.3-10.95-18.89-23.66-27.27-36.23-8.23-12.34-15.77-25.21-21.08-39.28,4.85,4.89,8.93,10.26,12.93,15.69,7.12,9.65,14,19.48,21.32,28.98,7.81,10.13,18.69,15.35,31.07,18.02-14.29-9.08-28.77-17.86-38.76-31.85l.74-1.34c6.6,1.71,13.2,3.41,19.79,5.12.18-.62.35-1.23.53-1.85-1.77-.71-3.55-1.42-5.32-2.13-11.95-4.78-22.49-11.6-30.8-21.54-1.22-1.46-2.42-3.56-2.34-5.3.07-1.4,2.09-2.72,2.35-3.03-11.41-5.88-23.13-11.91-34.81-17.92-7.72,12.1-27.95,93.24-25.07,101.66,9.62-5.53,18.7-12.78,30.79-10.75,11.77,1.98,19.36,9.9,26.41,18.68-7.38-2.11-14.55-4.64-21.75-7.08-10.07-3.41-18.72-1.32-26.82,5.78-6.31,5.53-7.52,12.34-7.21,19.83.67,16.24-4.55,30.52-14.25,43.23-6.97,9.13-14.48,17.85-21.54,26.91-3.88,4.98-7.77,10.05-10.88,15.52-4.58,8.07-2.96,14.06,4.56,19.48,2.55,1.84,5.38,3.31,8.1,4.92,3,1.79,6.13,3.39,9.01,5.35,3.34,2.27,3.37,4.84.52,7.85-8.37,8.84-7.26,20.68,2.46,28.07,1.16.88,2.26,1.85,3.71,3.06-1.57,1.23-2.83,2.27-4.15,3.23-7.74,5.65-9.23,11.91-4.61,20.35,1.27,2.32,2.74,4.66,4.6,6.51,5.79,5.72,7.83,12.56,7.08,20.49-.28,2.98-.62,6.01-.39,8.98.65,8.26.74,16.7,2.63,24.69,2.23,9.42,8.73,14.64,19.04,15.36,23.73,1.66,47.26.23,70.8-2.73,18.93-2.38,35.5-9.78,50.24-21.66,1.38-1.11,2.91-2.02,4.36-3.03-7.21,8.3-14.98,15.94-23.02,23.27-2.82,2.57-3.6,4.64-2.21,8.49,19.64,54.43,34.12,110.39,49.13,166.21,6.06,22.56,1.62,40.53-14.18,57.67-32.13,34.85-61,72.45-85.7,112.92-22.29,36.53-42.94,74.05-64.32,111.14-2.48,4.3-4.93,8.61-7.4,12.92-.46-.25-.92-.51-1.38-.76,5.45-11.73,10.89-23.47,16.36-35.2,19.91-42.74,40.15-85.3,63.5-126.33,13.77-24.19,26.41-48.99,35.93-75.23,1.46-4.02,2.62-8.15,3.91-12.23-.4-.18-.79-.37-1.19-.55-2.34,3.94-4.88,7.77-6.98,11.83-17.97,34.85-38.11,68.34-61.06,100.19-11.38,15.8-24.62,27.94-44.77,30.4-4.3.52-8.57,1.3-12.87,1.79-40.86,4.67-81.5,2.9-121.93-4.39-2.99-.54-5.83-1.9-8.74-2.89.09-.25.18-.49.27-.74,9.76.98,19.52,1.95,29.29,2.93.06-.37.13-.75.19-1.12-8.42-3.22-16.85-6.44-25.27-9.66.13-.26.25-.52.38-.78,26.88,3.01,53.76,6.01,80.63,9.02.28-.51.57-1.01.85-1.52-3.1-2.91-6.35-5.68-9.28-8.74-13.61-14.19-26.64-42.98-14.9-68.31,6.95-14.99,18.6-25.35,32.39-33.7,3.62-2.19,7.23-4.38,10.85-6.57-.13-.26-.25-.52-.38-.78-7.74.8-15.47,1.6-23.21,2.41,12.35-5.86,24.86-10.83,37.09-16.42,12.13-5.55,23.54-12.34,33.51-22.48-10.45,1.36-19.97,3.07-29.57,3.76-48.07,3.48-89.93-30.05-96.25-77.11-1.35-10.06-1.66-20.26-2.41-30.39-.67-9-3.27-17.13-8.85-24.51-3.56-4.71-5.84-10.4-8.66-15.67-.72-1.34-1.3-2.76-2.4-5.12-1.14,2.41-1.94,3.65-2.34,5.01-2.52,8.62-5.77,17.14-7.25,25.94-3.06,18.25-4.96,36.65,5.54,54.24-5.25-3.68-8.21-8.33-10.08-13.74-3.55-10.24-3.3-20.8-1.36-31.14,2.79-14.88,6.65-29.56,9.8-44.37,1.11-5.22,1.46-10.59,2.16-15.9-.48-.19-.95-.37-1.43-.56l-10.09,8.72c-.33-.26-.67-.52-1-.79,7.21-7.94,10.59-17.28,10.91-27.78.3-9.66.76-19.32.98-28.98.29-12.56-1.26-24.85-4.41-37.08-1.89-7.35-2.6-15.1-3.02-22.72-.94-16.79,3.84-32.61,8.84-48.39.86-2.7.66-6.25-.33-8.94-4.91-13.27-10.77-26.22-15.3-39.61-3.93-11.62-6.52-23.68-9.7-35.55Zm175.15,405.85c.12-.76.25-1.51.37-2.27-4.94-2.11-9.93-4.11-14.82-6.34-10.1-4.61-20.87-8.22-30.03-14.27-14.88-9.82-26.02-23.64-35.31-38.89-9.01-14.79-11.55-30.99-8.93-47.62,1.54-9.75-1.09-18.14-3.75-27.01-8.8,22.59-9.75,46.3-10.76,70.09-6-14.31-4.46-31.91-20.81-42.02,1.07,8.34,1.8,15.89,3.03,23.36,3.25,19.8,8.92,38.85,22.36,54.26,24.21,27.76,56.48,34.37,91.37,33.11,2.46-.09,4.86-1.57,7.29-2.41ZM33.44,360.85l2.95-.08c1.83-56.51,18.48-109.61,36.02-162.69-3.86,2.87-7.14,6.13-10.59,9.19-2.48,2.19-5.1,4.25-7.84,6.1-3.64,2.46-8.18,3.99-11.06,7.11-8.22,8.9-16.55,17.88-23.45,27.79-9.41,13.51-9.95,29.42-9.4,45.28,9.91-27.62,22.31-53.86,40.54-77.08-12.04,22.44-27.09,43.47-29.67,69.98-2.55,26.11,2.51,50.67,12.5,74.39Zm48.3,185.18c.16-.15.54-.34.61-.6,1.22-5.01,2.37-10.03,3.61-15.03,7.66-30.89,19.49-59.63,40.35-84.38,7.19-8.53,12.3-18.91,17.64-28.83,2.52-4.69.43-6.93-4.64-5.35-8.07,2.52-16.1,5.39-23.77,8.92-3.26,1.5-6.26,4.62-8.23,7.73-14.19,22.41-27.06,45.53-35.58,70.78-5.9,17.47-4.06,33.49,10.03,46.76Zm70.51,106.34c-1.11-3.78-2.05-6.43-2.67-9.15-2.37-10.36-5.84-20.65-6.66-31.14-1.25-15.92-4.61-31.17-9.32-46.33-3.72-11.95-4.9-24.49-1.01-36.44,3.21-9.84,8.5-19.01,13.1-28.37,1.61-3.27,3.9-6.21,5.88-9.3-.41-.3-.82-.6-1.23-.9-1.19,1.06-2.57,1.96-3.54,3.19-7.1,8.99-14.83,17.6-20.99,27.2-9.36,14.58-14.11,30.37-8.6,47.97,5.81,18.57,11.25,37.26,16.69,55.94,3.11,10.67,8.44,19.79,18.34,27.33ZM26.86,443.96c1.49-2.33,2.88-3.97,3.69-5.86,7.48-17.36,16.63-33.73,28.18-48.75.98-1.27,1.49-3.44,1.23-5.04-1.96-12-4.16-23.95-6.32-35.92-.12-.65-.61-1.23-1.04-2.08-7.47,13.3-12.24,26.72-10.51,41.85.49,4.27.17,8.65.05,12.97-.03,1.11-.67,2.2-1.03,3.3-.44.03-.87.06-1.31.09-2.81-7-5.62-14.01-8.7-21.71-8.11,10.56-10.75,50.87-4.23,61.13ZM101.09,143.28c1.36-3.24,2.79-5.87,3.58-8.67,2.57-9.13,5.15-18.27,7.27-27.51,2.93-12.8,6.54-25.18,16.37-34.69.73-.71,1.03-1.86,1.63-2.99-14.23.05-33.87,13.57-38.92,26.5-4.84,12.38.23,38.05,10.07,47.35Zm-33.31,451.65c.53-1.1.88-1.64,1.06-2.24,2.68-8.87,5.62-17.68,7.83-26.67.67-2.71.3-6.7-1.31-8.77-7.43-9.57-15.4-18.73-23.37-27.86-1.14-1.31-3.39-1.65-5.13-2.44-.72,1.75-1.93,3.46-2.07,5.26-1.94,24.23,7.89,44.15,23,62.71Zm78.94,190.95c-.65-.93-1.3-1.86-1.96-2.78-8.51,3.55-17.39,6.44-25.46,10.81-10.73,5.82-15.65,15.58-14.62,27.88,1.18,14.15,9.36,24.5,19.08,33.9.36.35,1.19.22,2.87.47-.74-6.71-1.29-12.92-2.14-19.1-2.48-18.16,1.64-34.04,15.84-46.46,1.98-1.74,4.25-3.15,6.38-4.72Zm-77.61-458.46c-8.41,11.76-10.05,36.06-3.69,55.66,10.31-8.08,20.45-16.04,30.69-24.06-9.14-10.69-17.96-21.02-26.99-31.59Zm36.37,526.89c-1.74-3.99-3.36-8.04-5.25-11.95-11.7-24.2-7.67-47.11,12.18-65.31,6.72-6.16,14.43-11.22,21.67-16.81,3.33-2.57,6.62-5.18,10.62-8.31-15.83-2.32-45.66,17.83-52.51,34.29-11.14,26.76-1.86,55.73,13.29,68.1Zm306.3-410.25c4.98,21.72,60.66,83.5,76.38,85.43-1.59-2.11-2.87-4.03-4.38-5.77-13.48-15.61-26.99-31.2-40.52-46.78-8.26-9.52-16.51-19.06-24.92-28.45-1.45-1.62-3.7-2.53-6.57-4.42ZM73.81,290.52c0,4.25-.92,8.51.16,12.18,4.39,15.01,12.84,27.7,23.88,38.69,1.17,1.16,2.49,2.58,3.97,2.94,2.33.55,5.9,1.33,7.05.15,1.73-1.76,3.01-5.47,2.35-7.73-1.02-3.51-3.71-6.59-5.9-9.7-4.12-5.85-8.51-11.51-12.57-17.41-4.96-7.21-7.97-16.16-18.95-19.12Zm23.64,140.97c-.42-.3-.84-.6-1.26-.91-.69.42-1.45.75-2.06,1.26-21.55,18.24-33.29,41.63-35.8,69.58-.7,7.77,2.23,14.94,6.47,21.56.69-4.26.33-8.44.75-12.55,1.98-19.45,10.4-36.68,19.06-53.79,4.25-8.4,8.56-16.78,12.84-25.16Zm12.3-56.55c-.55-.53-1.11-1.07-1.66-1.6-1.5.56-3.15.87-4.47,1.72-7.97,5.11-16.24,9.87-23.7,15.66-10.78,8.36-14.42,24.08-9.46,37.1.08.2.56.25,1.43.61,13.36-17.21,26.83-34.5,37.86-53.48Zm304.57,33.88c-.54.51-1.08,1.02-1.63,1.53,14.19,30.14,35.99,53.38,65.87,68.14,15.59,7.7,32.47,12.8,48.81,18.98,2.77,1.05,5.72,1.59,8.59,2.36-.8-1.69-1.88-2.41-3.06-2.89-10.64-4.31-21.28-8.63-31.96-12.86-25.95-10.27-48.22-25.08-64.15-48.79-6.42-9.55-14.92-17.7-22.47-26.48Zm-322.27,193.52c0,1.19-.11,2.34.02,3.46,2,16.94,7.14,32.79,16.5,47.15,7.8,11.98,18.05,21.28,30.93,27.52,2.07,1,4.56,1.16,6.85,1.7.15-.48.3-.95.45-1.43-13.55-9.21-22.73-22.36-31.17-35.81-8.54-13.61-15.64-28.12-23.57-42.6Zm477.12-163.67c-21.47-11.62-42.9-22.25-63.32-34.56-20.52-12.37-37.39-29.52-54.21-46.53,16.3,32.92,73.56,72.18,117.53,81.09Zm-530.19,21.06c.64.36,1.29.73,1.93,1.09,3.05-2.97,5.91-6.17,9.19-8.87,11.08-9.13,14.34-20.26,9.44-33.83-1.24-3.45-1.9-7.11-2.83-10.67-.57,0-1.13.01-1.7.02-8.25,16.54-14.86,33.57-16.03,52.26Zm12.63-169.77c-.67,0-1.34.02-2.02.03-1.64,16.45-3.28,32.91-4.92,49.36l1.95.66c4.11-5.75,8.42-11.38,12.21-17.34,1.11-1.75,1.51-4.64.95-6.64-2.47-8.76-5.41-17.39-8.18-26.06Zm101.19,214.32c-13.25,11.04-15.79,44.97-6.47,58.38,2.11-19.02,4.29-38.7,6.47-58.38Zm-38.75-311.59v-40.95h-1.56c-2.35,13.64-2.47,27.27,1.56,40.95Zm119.42-62.51l.59-1.39c-8.23-3.78-16.46-7.56-25.72-11.82,2.81,7.02,15.71,13.2,25.13,13.21Zm233.34,313.5c-8.04-10.99-16.08-21.99-24.12-32.98,5.33,13,14.34,23.28,24.12,32.98ZM121.45,104.97c.54.11,1.09.22,1.63.33,1.54-7.33,3.07-14.66,4.61-21.99l-1.74-.35c-3.56,6.92-5.59,14.15-4.49,22.01ZM41.48,495.23c.64.06,1.28.11,1.92.17.79-5.82,1.57-11.64,2.36-17.47l-2.04-.27c-.75,5.86-1.5,11.71-2.24,17.57Zm24.8-215.91c.69.3,1.37.59,2.06.89,1.5-3.96,3-7.91,4.49-11.87-.59-.23-1.18-.46-1.76-.69-1.6,3.89-3.19,7.78-4.79,11.66Z"/><path d="m668.18,967.02c-27.83-36.02-56.95-70.83-93.21-98.74-36.08-27.76-74.44-52.02-114.36-74.15.98.21,2.02.27,2.93.64,44.82,18.29,88.38,39.01,127.84,67.42,24.81,17.86,47.07,38.35,61.66,65.77,5.54,10.41,9.98,21.41,14.79,32.2.84,1.89,1.01,4.08,1.49,6.13l-1.14.73Z"/><path d="m449.53,666.45c-3.67-2.53-7.51-4.84-10.97-7.62-15.29-12.34-30.62-24.65-45.67-37.29-19-15.97-29.94-37.18-37.78-60.18-13.37-39.21-15.51-79.55-11.65-120.45.3-3.21.64-6.41,2.14-9.62.8,8.84,1.45,17.69,2.43,26.51,2.82,25.65,5.75,51.29,8.68,76.92,3.79,33.23,20.44,59.12,46.35,79.29,16.88,13.14,30.75,28.95,43.61,45.8,1.11,1.46,2.15,2.97,3.17,4.49.25.37.32.87.48,1.31-.26.28-.53.56-.79.85Z"/><path d="m195.65,309.27c1.09-6.32,2.04-12.67,3.31-18.95,1.48-7.33-6.41-10.45-7.92-18.05,11.77,2.46,22.62,4.73,33.34,6.97-9.06,10.59-17.84,20.85-26.61,31.1-.7-.36-1.41-.72-2.11-1.08Z"/><path d="m475.39,683.23c-7.78-4.57-11.8-12.22-14.83-20.69,5.4,6.49,10.8,12.98,16.2,19.47-.46.41-.91.82-1.37,1.22Z"/></svg>